<svg xmlns="http://www.w3.org/2000/svg" width="1050" height="620" viewBox="0 0 1050 620">
<rect width="100%" height="100%" fill="white"/>
<text x="525" y="32" text-anchor="middle" font-family="Arial" font-size="24">Average Days Since Last Purchase by Customer Segment</text>
<line x1="190" y1="550" x2="950" y2="550" stroke="black"/>
<text x="570" y="600" text-anchor="middle" font-family="Arial" font-size="15">Average Days Since Last Purchase</text>
<text x="180" y="100.3" text-anchor="end" font-family="Arial" font-size="14">Hibernating</text><rect x="190" y="77.7" width="696.6" height="35.2" fill="#4c78a8"/><text x="894.6" y="100.3" font-family="Arial" font-size="13">522 days</text>
<text x="180" y="160.9" text-anchor="end" font-family="Arial" font-size="14">At Risk</text><rect x="190" y="138.4" width="358.1" height="35.2" fill="#4c78a8"/><text x="556.1" y="160.9" font-family="Arial" font-size="13">269 days</text>
<text x="180" y="221.6" text-anchor="end" font-family="Arial" font-size="14">Needs Attention</text><rect x="190" y="199.0" width="319.1" height="35.2" fill="#4c78a8"/><text x="517.1" y="221.6" font-family="Arial" font-size="13">239 days</text>
<text x="180" y="282.2" text-anchor="end" font-family="Arial" font-size="14">Promising</text><rect x="190" y="259.6" width="75.2" height="35.2" fill="#4c78a8"/><text x="273.2" y="282.2" font-family="Arial" font-size="13">56 days</text>
<text x="180" y="342.8" text-anchor="end" font-family="Arial" font-size="14">Loyal Customers</text><rect x="190" y="320.2" width="54.5" height="35.2" fill="#4c78a8"/><text x="252.5" y="342.8" font-family="Arial" font-size="13">41 days</text>
<text x="180" y="403.4" text-anchor="end" font-family="Arial" font-size="14">New Customers</text><rect x="190" y="380.9" width="19.8" height="35.2" fill="#4c78a8"/><text x="217.8" y="403.4" font-family="Arial" font-size="13">15 days</text>
<text x="180" y="464.1" text-anchor="end" font-family="Arial" font-size="14">Potential Loyalists</text><rect x="190" y="441.5" width="18.3" height="35.2" fill="#4c78a8"/><text x="216.3" y="464.1" font-family="Arial" font-size="13">14 days</text>
<text x="180" y="524.7" text-anchor="end" font-family="Arial" font-size="14">Champions</text><rect x="190" y="502.1" width="14" height="35.2" fill="#4c78a8"/><text x="212" y="524.7" font-family="Arial" font-size="13">10 days</text>
</svg>